<?xml version="1.0" standalone="no"?>
<!DOCTYPE svg PUBLIC "-//W3C//DTD SVG 20010904//EN"
 "http://www.w3.org/TR/2001/REC-SVG-20010904/DTD/svg10.dtd">
<svg version="1.0" xmlns="http://www.w3.org/2000/svg"
 width="860.000000pt" height="565.000000pt" viewBox="0 0 860.000000 565.000000"
 preserveAspectRatio="xMidYMid meet">

<g transform="translate(0.000000,565.000000) scale(0.100000,-0.100000)"
fill="#000000" stroke="none">
<path d="M904 5226 c-56 -26 -92 -66 -125 -141 -19 -42 -21 -59 -14 -124 7
-72 9 -134 6 -173 -1 -24 -57 -86 -84 -94 -12 -3 -29 -13 -38 -20 -12 -11 -22
-11 -45 -2 -40 15 -74 5 -114 -32 -18 -16 -36 -30 -40 -30 -14 0 -60 -60 -86
-111 -54 -108 -75 -299 -54 -484 7 -60 14 -158 14 -216 1 -95 3 -109 26 -142
14 -20 44 -51 68 -68 41 -30 42 -31 42 -91 0 -33 -11 -131 -25 -217 -13 -86
-31 -207 -38 -270 -13 -107 -13 -114 4 -118 35 -9 41 -81 45 -535 3 -211 5
-423 6 -473 1 -70 -5 -112 -26 -190 -25 -89 -29 -132 -42 -390 -8 -159 -17
-326 -21 -369 -4 -61 -2 -82 8 -90 9 -7 14 -34 15 -82 0 -77 19 -122 55 -131
10 -3 27 -20 38 -38 35 -61 123 -85 232 -65 87 16 139 44 139 74 0 35 -38 100
-95 166 -78 90 -85 99 -75 105 6 4 10 61 11 128 0 67 4 158 8 202 11 111 76
474 96 530 20 61 56 312 70 490 3 39 8 90 11 114 l6 44 20 -44 c35 -77 79
-212 87 -268 7 -47 4 -66 -21 -134 -26 -72 -30 -100 -43 -315 -8 -134 -24
-287 -36 -352 -11 -63 -25 -151 -30 -195 -5 -44 -12 -99 -15 -122 -6 -39 -4
-43 25 -57 16 -9 60 -23 97 -32 64 -15 67 -14 88 5 29 27 35 27 114 -8 112
-48 109 -48 116 3 4 25 20 71 35 101 l28 56 -26 13 c-48 26 -69 51 -85 106
-29 98 -22 170 45 434 34 133 63 245 66 249 3 4 21 -14 41 -40 l37 -48 -1
-170 c-1 -107 -6 -196 -16 -242 l-15 -72 23 -5 c39 -10 49 -42 28 -87 -9 -22
-14 -42 -11 -46 4 -3 40 5 79 18 53 18 76 31 83 47 14 32 60 27 60 -6 0 -12 7
-27 15 -32 20 -13 100 -13 100 0 0 6 -9 10 -20 10 -23 0 -27 25 -6 33 16 6 46
-22 46 -44 0 -8 -5 -20 -12 -27 -6 -6 -10 -13 -7 -14 2 -2 28 -25 56 -52 l52
-49 19 24 c17 20 24 22 47 14 28 -10 34 -17 54 -67 13 -33 55 -39 70 -9 12 21
5 31 -21 31 -22 0 -24 16 -2 24 41 16 79 -51 53 -92 -27 -44 -80 -52 -132 -22
-39 23 -65 18 -71 -14 -19 -98 -30 -134 -52 -164 -36 -47 -81 -72 -131 -72
-59 0 -90 -14 -108 -50 -19 -37 -14 -60 14 -60 45 0 68 -23 32 -33 -19 -5 -51
9 -63 27 -17 24 -7 65 21 92 l29 27 -47 23 c-110 50 -133 186 -45 264 41 36
98 40 154 12 40 -20 48 -55 14 -60 -16 -2 -24 4 -32 27 -27 76 -137 42 -162
-49 -18 -68 17 -126 84 -137 28 -4 44 0 81 25 25 17 64 33 85 37 72 12 115 94
90 171 -16 47 -73 110 -124 136 -57 29 -168 36 -234 14 -50 -17 -133 -81 -153
-118 -16 -30 -4 -32 24 -4 29 29 77 35 77 11 0 -10 -10 -15 -29 -15 -36 0 -81
-48 -106 -114 -25 -66 -17 -184 17 -251 31 -59 94 -133 135 -157 l29 -17 -4
29 c-3 21 1 31 16 39 23 12 44 -5 22 -19 -19 -12 -8 -51 21 -72 14 -11 55 -24
92 -31 187 -32 398 81 510 273 94 162 125 395 82 623 -6 33 -11 37 -36 37 -31
0 -36 -9 -18 -27 17 -17 1 -37 -17 -22 -23 19 -17 48 13 60 19 7 23 13 15 21
-9 9 -20 7 -45 -7 -27 -14 -38 -15 -55 -6 -18 10 -22 21 -22 59 0 53 -12 72
-46 72 -36 0 -48 -24 -30 -58 15 -30 13 -42 -10 -42 -31 0 -22 112 12 141 19
16 67 16 98 0 13 -7 30 -28 39 -47 17 -36 24 -39 45 -25 17 10 -7 77 -103 281
-82 174 -136 329 -165 470 -22 110 -41 289 -38 375 1 53 2 48 10 -35 13 -152
47 -353 74 -448 93 -328 260 -620 516 -906 l45 -50 23 42 c28 50 95 98 149
107 l39 6 -48 48 c-75 75 -109 199 -81 296 10 35 85 116 128 139 29 15 31 14
54 -11 13 -14 57 -41 97 -60 41 -19 72 -36 70 -39 -3 -2 -19 3 -36 12 -43 21
-85 11 -125 -30 l-32 -32 -21 31 c-16 23 -27 29 -50 27 -16 -1 -37 -2 -46 -3
-36 -1 -48 -110 -23 -196 29 -98 131 -200 188 -189 51 10 137 -44 124 -77 -3
-8 8 -41 25 -73 28 -56 30 -63 24 -146 -6 -78 -10 -90 -36 -118 -37 -40 -38
-55 -2 -68 76 -29 134 -26 153 9 13 26 -16 78 -34 60 -19 -19 -39 -13 -35 11
2 18 10 24 40 26 45 4 78 -24 78 -67 0 -33 -13 -46 -66 -65 -21 -7 -39 -19
-39 -27 0 -20 163 -102 285 -143 126 -42 276 -70 343 -63 93 8 169 86 169 172
0 139 -174 212 -243 103 -42 -68 0 -158 75 -158 39 0 76 35 76 72 0 35 -22 51
-60 43 -27 -6 -43 -25 -20 -25 5 0 7 -7 4 -15 -4 -10 0 -15 11 -15 12 0 16 6
12 20 -3 13 0 20 10 20 20 0 13 -40 -9 -54 -40 -25 -77 43 -43 78 21 20 54 21
83 0 31 -21 31 -83 -1 -112 -35 -33 -96 -30 -136 7 -26 24 -31 37 -31 75 0
105 125 168 218 109 30 -19 39 -10 24 22 -17 38 -15 55 9 63 18 7 12 12 -40
32 -34 14 -61 29 -61 34 0 5 46 6 108 2 82 -5 119 -3 157 8 110 33 185 108
220 220 9 28 18 57 20 63 3 10 13 9 41 -4 35 -17 36 -17 50 2 21 28 17 51 -18
128 -24 52 -29 73 -21 85 13 21 43 28 43 10 0 -8 6 -23 14 -34 14 -18 16 -18
31 -3 34 33 -7 109 -58 109 -10 0 -29 -12 -42 -26 -29 -31 -32 -74 -10 -127
26 -63 -28 -62 -66 1 -34 57 -60 82 -114 110 -142 73 -307 -9 -321 -159 -14
-148 131 -234 274 -162 45 23 56 25 73 15 24 -15 39 -8 39 19 0 31 -42 45 -74
24 l-27 -18 11 29 c27 70 -31 152 -114 161 -42 5 -46 4 -46 -16 0 -18 6 -21
43 -21 70 0 99 -50 58 -101 -18 -22 -20 -22 -61 -9 -33 11 -46 11 -61 2 -30
-19 -56 -14 -79 15 -17 23 -21 36 -15 68 8 56 48 111 97 136 62 32 161 24 220
-16 93 -65 127 -210 74 -320 -44 -90 -100 -136 -196 -161 -172 -44 -322 33
-410 210 -26 51 -30 70 -30 140 0 84 18 172 47 235 30 64 133 157 220 198 70
34 88 38 174 41 179 8 303 -41 429 -167 198 -198 244 -484 119 -732 -32 -64
-114 -179 -127 -179 -39 0 -412 110 -527 156 -18 7 -19 6 -5 -11 14 -17 13
-18 -12 -11 -22 5 -28 3 -28 -9 0 -16 5 -19 51 -29 32 -7 42 -27 29 -61 -8
-21 -14 -24 -36 -19 -24 6 -26 5 -19 -17 19 -59 25 -69 40 -63 9 4 15 1 15 -8
0 -22 -12 -29 -27 -17 -8 8 -13 8 -13 1 0 -6 -3 -18 -7 -27 -5 -14 -2 -16 16
-10 34 10 24 -26 -12 -43 -15 -7 -38 -23 -50 -36 -12 -12 -31 -28 -42 -34 -33
-18 -14 -21 75 -11 184 20 346 81 473 177 l68 52 67 -15 c179 -37 308 -49 527
-49 179 1 242 5 336 22 223 41 386 104 570 223 123 79 365 207 511 271 367
158 786 242 1101 218 124 -9 140 -17 123 -61 -10 -27 -8 -33 9 -46 25 -18 91
-11 114 12 15 15 14 18 -14 42 l-30 26 30 -7 c44 -10 78 -52 71 -88 -13 -68
58 -149 148 -168 35 -7 76 -7 131 0 44 5 94 7 112 4 69 -13 108 -85 62 -115
-26 -18 -16 -49 15 -49 48 0 59 46 27 115 -60 133 -390 298 -681 341 -153 22
-413 15 -590 -16 -269 -47 -547 -143 -825 -284 -88 -44 -164 -83 -170 -85 -5
-2 13 20 40 50 28 30 66 77 85 104 18 28 35 52 37 55 3 3 9 -3 14 -13 15 -25
25 -21 54 20 19 28 25 50 25 90 0 56 7 83 21 83 5 0 9 -9 9 -20 0 -48 49 1 57
57 7 50 -15 72 -52 55 -24 -11 -25 -11 -18 16 14 50 7 234 -10 302 -31 118
-82 207 -171 296 -195 195 -431 248 -694 157 -172 -59 -350 -22 -479 100 -48
45 -53 54 -53 93 0 43 -11 61 -30 49 -7 -4 -7 -13 0 -26 6 -10 8 -19 5 -19 -3
0 -18 26 -33 58 -23 49 -27 70 -27 147 0 80 3 97 30 150 33 67 91 117 156 137
32 9 45 9 60 0 20 -13 39 -8 39 9 0 20 -46 31 -84 21 -55 -16 -34 4 32 28 185
70 392 -62 392 -250 0 -79 -29 -141 -88 -185 -70 -55 -160 -60 -227 -14 -124
85 -84 279 57 279 56 0 108 -49 108 -101 0 -72 -81 -118 -123 -71 -24 27 -21
55 9 81 30 26 26 36 -11 27 -34 -9 -59 -66 -50 -114 10 -52 45 -82 97 -82 29
0 38 3 29 9 -8 5 -11 16 -8 25 8 20 27 21 27 2 0 -44 59 -29 94 24 14 22 33
40 41 40 8 0 15 4 15 9 0 19 -21 22 -45 7 -42 -27 -54 -21 -53 27 1 85 -49
137 -135 137 -161 0 -205 -219 -64 -317 81 -56 218 -37 283 39 103 123 90 276
-34 389 -54 49 -54 50 -36 70 11 12 17 30 16 41 -6 36 35 50 62 22 9 -8 16
-11 16 -5 0 38 -85 55 -128 25 -26 -18 -29 -59 -5 -73 32 -17 5 -24 -48 -11
-29 7 -81 10 -120 8 -65 -5 -69 -4 -64 13 10 30 -23 36 -48 9 -15 -16 -18 -24
-9 -27 21 -8 14 -17 -43 -58 -31 -22 -67 -57 -82 -77 -14 -21 -29 -38 -34 -38
-24 0 -38 77 -18 97 14 14 -3 25 -25 17 -28 -11 -31 -53 -7 -101 25 -52 27
-96 5 -117 -29 -29 -78 -13 -95 31 -12 32 6 60 27 42 11 -9 14 -8 14 4 0 9
-10 19 -22 23 -55 17 -95 -109 -48 -156 24 -24 33 -25 50 -5 17 20 47 19 58
-2 5 -10 12 -47 15 -82 7 -88 61 -195 134 -267 91 -89 225 -144 355 -144 l49
0 -73 -64 c-40 -35 -103 -95 -140 -135 -47 -50 -74 -71 -91 -71 -32 0 -51 24
-43 54 4 18 11 23 26 19 14 -4 20 0 20 11 0 24 -46 31 -76 12 -30 -21 -44 -54
-44 -108 0 -32 7 -47 34 -74 20 -20 44 -34 58 -34 30 0 64 35 74 75 8 35 22
55 38 55 9 0 9 -18 -2 -72 -29 -143 18 -297 124 -409 107 -111 238 -150 387
-115 85 20 107 20 121 0 15 -19 46 -8 46 17 0 10 -7 22 -17 27 -26 15 66 117
121 134 31 10 42 19 44 37 6 37 -16 50 -37 22 -17 -23 -18 -21 -17 71 1 88 -1
99 -31 156 -17 34 -28 62 -24 62 4 0 27 -22 50 -50 30 -35 51 -51 76 -56 49
-9 116 15 135 48 14 26 13 29 -7 49 -26 26 -48 18 -30 -12 10 -16 9 -21 -3
-29 -26 -17 -53 -6 -77 30 -45 71 -54 80 -78 80 -13 0 -36 -7 -52 -17 -31 -17
-64 -13 -98 12 -28 22 -9 48 40 56 64 11 86 70 44 123 -29 37 -88 34 -110 -6
-7 -14 -7 -23 2 -34 18 -22 30 -17 27 14 -3 23 1 27 21 27 29 0 65 -44 56 -68
-10 -24 -39 -30 -85 -16 -51 15 -73 2 -52 -32 18 -29 10 -33 -52 -30 -72 3
-129 -13 -170 -49 -48 -43 -66 -40 -66 10 0 48 -21 62 -50 35 -31 -28 -26 -67
11 -88 l31 -17 -23 -38 c-40 -67 -49 -89 -43 -106 9 -22 34 -20 34 3 0 11 5
23 10 26 6 3 10 -3 10 -15 0 -57 96 -184 160 -210 34 -14 37 -26 13 -59 -16
-23 -15 -25 6 -43 31 -25 49 -23 25 3 -19 21 -18 21 7 42 14 12 35 27 45 34
18 12 18 13 -4 31 -20 15 -21 20 -9 30 7 6 24 13 38 14 22 3 24 0 21 -31 l-4
-35 44 39 c57 51 69 78 62 140 -8 66 -28 108 -70 145 -29 25 -43 30 -85 30
-44 0 -55 -4 -92 -39 -46 -43 -44 -65 4 -37 40 23 74 14 99 -27 41 -67 14
-137 -61 -157 -48 -13 -75 -6 -112 29 -83 77 -89 153 -16 227 39 39 69 59 54
35 -10 -17 17 -24 33 -8 12 13 13 19 3 31 -11 13 -9 17 14 26 61 23 152 4 204
-43 41 -38 71 -115 71 -183 0 -43 -5 -65 -15 -74 -16 -13 -21 -40 -7 -40 29 1
37 22 37 100 -1 58 2 75 9 63 5 -10 10 -47 10 -83 1 -121 -70 -225 -194 -284
-57 -27 -76 -31 -150 -31 -76 0 -93 4 -151 32 -235 116 -315 431 -167 651 152
224 459 299 726 177 58 -27 68 -40 22 -30 -59 13 -107 -50 -65 -85 21 -18 48
-5 40 20 -10 31 32 35 101 9 107 -39 209 -178 250 -339 37 -142 14 -339 -56
-488 -95 -204 -294 -392 -526 -498 -110 -50 -283 -100 -415 -120 -207 -32
-503 -23 -761 23 l-88 15 44 57 c165 212 191 488 69 724 -45 88 -162 210 -246
257 -80 45 -145 113 -181 190 -28 59 -31 74 -31 165 0 87 3 107 26 156 70 149
218 225 368 189 105 -25 177 -98 202 -206 22 -96 -30 -206 -116 -245 -138 -63
-294 47 -255 180 20 70 90 113 156 97 28 -7 74 -51 74 -72 0 -7 -18 -31 -40
-53 -35 -35 -44 -40 -61 -30 -32 17 -22 63 15 69 40 7 39 24 -2 28 -67 7 -97
-65 -49 -116 13 -14 22 -36 22 -55 0 -34 27 -49 48 -28 9 9 6 13 -11 17 -40
11 -18 34 32 34 62 0 91 115 44 175 -24 30 -74 55 -113 55 -31 0 -32 14 -3 34
15 11 26 12 39 6 24 -13 29 -13 29 5 0 37 -115 45 -149 10 -15 -15 -15 -17 2
-29 9 -7 17 -20 17 -28 0 -17 -51 -68 -68 -68 -15 0 -15 5 3 39 16 32 12 41
-20 41 -38 0 -59 -33 -51 -81 7 -46 -5 -69 -36 -69 -15 0 -18 5 -13 21 5 15 4
19 -4 15 -16 -10 -13 -42 5 -57 14 -11 21 -10 46 4 41 23 57 21 63 -8 3 -14 7
-36 10 -49 7 -37 54 -87 100 -107 94 -43 215 -5 270 85 25 41 31 62 33 125 4
89 -10 131 -65 192 -47 52 -100 79 -188 94 l-70 13 33 12 c43 16 42 53 -2 58
-24 3 -36 -5 -71 -45 -24 -27 -69 -64 -101 -83 l-59 -35 0 110 c0 103 -2 114
-32 177 -39 83 -108 154 -188 194 -52 25 -71 29 -145 29 -71 0 -94 -4 -141
-26 -52 -24 -56 -25 -52 -8 8 28 -17 24 -64 -10 -72 -52 -105 -111 -63 -111
24 0 24 6 4 -70 -16 -64 -13 -118 11 -177 21 -50 92 -120 141 -139 36 -13 43
-21 39 -35 -5 -15 -1 -19 20 -19 18 0 29 6 32 18 3 11 21 23 48 30 54 14 106
59 151 129 35 55 58 67 67 33 6 -24 27 -27 27 -4 0 45 -49 71 -78 42 -9 -9
-12 -9 -12 3 0 8 14 28 30 44 38 36 38 51 -1 91 -20 20 -29 39 -26 48 7 19 44
21 49 4 3 -9 6 -9 12 0 12 20 -32 54 -66 50 -46 -5 -56 -28 -35 -85 25 -69 22
-82 -10 -51 -40 37 -66 48 -115 48 -105 0 -170 -102 -119 -186 25 -42 73 -61
115 -46 17 6 41 9 54 6 19 -6 22 -2 22 23 0 16 7 39 16 51 27 39 -2 82 -34 50
-9 -9 -12 -5 -12 20 0 30 -2 32 -35 32 -62 0 -109 -68 -70 -100 16 -13 45 -7
45 9 0 6 -7 8 -15 5 -23 -9 -18 23 5 36 33 18 70 -12 70 -56 0 -24 -47 -64
-75 -64 -40 0 -85 50 -85 93 0 72 84 130 153 108 61 -20 107 -86 107 -152 0
-42 -34 -103 -72 -130 l-33 -24 18 28 c20 31 14 55 -9 36 -8 -6 -14 -17 -14
-25 0 -7 -10 -23 -23 -34 -18 -18 -31 -21 -80 -18 -74 5 -129 43 -171 118 -74
131 -14 295 132 367 49 24 69 28 142 28 69 0 94 -4 132 -23 201 -99 275 -336
173 -549 -45 -94 -59 -160 -52 -246 7 -80 46 -172 98 -232 33 -37 33 -38 9
-32 -177 49 -340 20 -477 -84 l-53 -40 7 43 c14 77 7 201 -15 274 -52 170
-190 320 -343 373 -124 42 -258 33 -370 -26 -74 -38 -72 -38 -60 -14 14 25 7
41 -19 41 -23 0 -131 -85 -159 -126 -30 -43 -28 -74 4 -74 27 0 34 -25 15 -59
-5 -10 -14 -47 -19 -82 -8 -50 -7 -78 5 -129 8 -36 16 -95 16 -131 2 -63 -1
-69 -34 -108 l-35 -42 -99 104 c-55 57 -119 129 -143 160 l-44 57 27 26 c42
42 40 97 -5 135 -20 16 -30 32 -27 45 5 28 34 29 59 0 37 -43 82 -32 119 29
23 36 55 46 78 23 20 -20 15 -48 -9 -48 -25 0 -20 -23 6 -28 22 -5 35 14 35
54 0 35 -21 59 -68 75 -41 14 -89 -1 -127 -41 -49 -51 -56 -36 -23 51 7 19 18
34 25 32 19 -7 26 17 9 36 -9 10 -23 40 -31 68 -8 28 -24 62 -35 76 -30 38
-26 48 19 41 34 -5 43 -3 66 20 34 34 33 89 -2 94 -13 2 -23 -1 -23 -7 0 -6 6
-11 14 -11 19 0 29 -30 15 -46 -17 -20 -35 -17 -65 11 -35 32 -89 35 -97 4 -5
-20 -10 -21 -89 -14 -46 4 -86 12 -90 19 -5 7 -12 8 -21 1 -51 -37 -100 -66
-104 -62 -3 3 -6 45 -7 94 -1 67 -7 97 -23 128 -16 31 -21 58 -21 120 1 102
-24 196 -67 262 -31 47 -65 116 -65 132 0 17 61 29 96 19 20 -5 52 -7 70 -3
33 6 34 5 40 -34 8 -49 12 -53 92 -80 70 -24 108 -26 162 -10 54 16 81 6 150
-57 33 -31 60 -52 60 -47 0 27 -130 123 -166 123 -18 0 -23 6 -26 33 -2 24 -8
33 -24 35 -12 2 -24 12 -27 23 -4 15 4 24 35 40 47 24 69 19 148 -35 29 -20
57 -36 64 -37 6 -1 0 -4 -14 -8 -39 -11 -32 -43 15 -65 73 -36 184 -17 200 35
11 32 -2 35 -29 6 -28 -30 -62 -34 -92 -13 -29 22 -7 36 82 52 139 24 194 20
288 -25 133 -64 211 -165 237 -307 27 -145 -51 -294 -186 -356 -69 -31 -183
-32 -240 -1 -134 72 -178 235 -86 318 18 16 25 17 39 7 31 -22 44 -25 53 -11
6 10 2 19 -12 32 -29 23 -42 22 -79 -9 -17 -15 -33 -24 -36 -21 -9 9 55 74 90
91 39 18 127 21 159 5 42 -22 77 -62 77 -90 0 -60 -75 -105 -100 -59 -8 15 -6
23 11 38 25 24 10 37 -25 20 -49 -22 -51 -112 -3 -137 63 -33 106 -32 150 3
18 14 18 15 -3 36 -21 21 -19 40 5 40 7 0 15 -7 19 -15 12 -33 63 -9 79 38 9
24 37 33 49 16 7 -11 8 -9 6 6 -4 26 -38 31 -77 10 -31 -16 -31 -16 -51 19
-37 62 -124 106 -209 106 -76 0 -136 -31 -177 -92 l-31 -46 -12 33 c-15 41
-88 156 -98 153 -5 0 -35 12 -68 27 -71 34 -156 38 -219 11 -35 -15 -41 -15
-62 -1 -34 22 -73 18 -111 -11 -18 -14 -41 -24 -51 -22 -22 4 -29 38 -8 38 9
0 16 5 16 10 0 16 -37 11 -44 -6 -20 -53 13 -94 77 -94 23 0 54 6 69 14 l27
14 -24 -36 c-63 -98 -54 -202 27 -279 115 -110 291 -42 292 112 1 66 -22 101
-87 132 -49 24 -60 49 -32 73 12 10 13 16 4 27 -10 11 -15 11 -30 -3 -25 -23
-24 -50 4 -78 l24 -24 -38 -16 c-69 -31 -97 -93 -67 -149 24 -46 73 -62 98
-32 20 24 -2 40 -29 23 -19 -11 -24 -11 -36 6 -31 41 25 75 68 42 12 -9 32
-12 57 -9 51 7 60 -12 29 -67 -24 -42 -85 -80 -130 -80 -39 0 -110 41 -143 83
-28 35 -31 46 -31 106 0 58 4 75 30 117 87 140 280 151 400 23 60 -64 89 -128
81 -180 -3 -21 -9 -56 -12 -78 -7 -43 18 -104 40 -99 6 2 27 -14 46 -35 107
-122 304 -123 437 -4 21 20 52 60 69 89 27 50 29 60 29 163 0 102 -2 115 -31
175 -17 36 -52 87 -78 113 -26 27 -39 46 -29 43 50 -14 145 -26 212 -26 202 1
378 82 496 230 93 117 209 168 350 157 86 -8 121 -30 117 -76 -2 -34 8 -40 28
-16 10 12 9 20 -4 40 -45 68 79 -13 128 -84 32 -45 56 -125 56 -181 0 -96 -61
-199 -144 -243 -80 -42 -226 -22 -275 37 -19 22 -5 20 28 -5 20 -15 39 -19 72
-17 41 3 44 5 44 33 0 41 -27 44 -42 5 -6 -16 -17 -30 -25 -30 -31 0 -77 41
-102 91 -42 85 -32 147 35 204 38 31 78 29 116 -7 39 -37 24 -108 -23 -108
-29 0 -42 24 -24 45 10 12 9 15 -8 15 -41 0 -57 -73 -22 -105 10 -9 39 -20 62
-22 34 -4 47 -1 61 15 12 13 15 22 8 27 -16 9 -13 35 4 35 8 0 15 -4 15 -10 0
-19 39 -10 51 13 15 28 30 38 48 32 11 -5 12 -3 1 10 -14 17 -46 20 -55 5 -12
-19 -35 -10 -50 20 -29 56 -132 97 -175 70 -9 -6 -17 -5 -22 3 -19 31 -88 -67
-88 -125 0 -17 -7 -31 -21 -38 -31 -17 -23 -64 13 -68 21 -2 32 -14 49 -49 42
-87 154 -137 259 -116 l51 10 -6 -38 c-6 -36 -5 -39 27 -53 18 -8 41 -17 50
-20 9 -3 24 -16 33 -30 14 -21 14 -28 2 -58 -28 -68 -128 -87 -164 -31 -33 50
15 106 57 68 11 -10 26 -15 36 -11 29 11 -6 50 -48 54 -66 6 -101 -76 -58
-131 28 -36 79 -44 135 -23 35 14 48 26 64 60 35 70 23 123 -33 157 -37 22
-47 43 -35 77 12 33 49 28 89 -13 55 -57 101 -45 160 40 38 55 62 70 90 55 50
-27 61 -90 16 -90 -29 0 -39 -10 -25 -27 19 -22 57 -15 75 12 39 59 -10 142
-98 165 -59 16 -109 0 -169 -57 -30 -28 -54 -43 -64 -39 -20 7 -19 13 10 70
14 27 25 60 25 74 0 20 2 22 15 12 35 -29 49 29 15 65 -11 12 -27 47 -35 79
-9 32 -31 82 -50 111 -19 28 -35 57 -35 64 0 14 25 14 52 0 29 -16 91 4 118
38 16 20 20 38 18 72 -3 40 -7 47 -31 55 -41 15 -58 -7 -20 -26 49 -23 40 -88
-13 -88 -13 0 -38 15 -58 35 -55 54 -111 60 -133 13 -17 -34 -48 -41 -129 -28
-37 6 -87 8 -113 5 -25 -3 -40 -2 -33 1 17 8 15 34 -3 34 -8 0 -29 -13 -47
-28 -38 -33 -158 -113 -158 -106 0 3 4 13 10 23 5 10 14 50 20 88 45 291 -225
543 -503 470 -54 -14 -58 -14 -52 1 12 30 10 36 -8 40 -10 2 -36 -8 -57 -22
-51 -34 -78 -34 -86 0 -7 28 24 72 33 47 6 -17 23 -16 23 1 0 19 -28 28 -50
16 -25 -13 -41 -65 -30 -94 10 -26 47 -40 85 -30 15 4 25 2 25 -5 0 -15 -81
-121 -94 -122 -6 -1 -20 -2 -31 -3 -14 -1 -21 -9 -23 -28 -3 -22 2 -30 23 -38
24 -9 26 -14 20 -43 -10 -46 -27 -76 -32 -57 -13 44 -13 44 -30 27 -15 -15
-15 -18 1 -42 13 -20 23 -25 40 -21 19 5 25 -3 49 -57 31 -71 32 -77 13 -77
-20 0 -38 -27 -38 -56 0 -18 10 -35 31 -51 36 -28 40 -57 11 -73 -26 -14 -43
-4 -35 21 4 13 2 19 -9 19 -27 0 -30 -39 -5 -66 55 -58 147 2 128 84 -11 52 4
76 44 68 170 -31 230 -9 287 105 31 60 52 74 101 67 22 -3 24 -7 21 -45 -4
-46 10 -57 28 -24 15 29 12 49 -10 71 -24 24 -68 26 -96 5 -29 -22 -31 -19
-36 38 -6 68 -37 113 -95 139 -63 28 -116 17 -165 -32 -35 -34 -38 -42 -38
-93 0 -58 15 -82 44 -71 22 8 20 37 -4 59 -30 27 -25 62 15 102 33 33 39 35
78 29 54 -8 89 -34 103 -76 16 -48 3 -81 -43 -113 -23 -15 -51 -43 -63 -62
-29 -47 -57 -65 -103 -65 -106 0 -184 108 -175 243 7 110 72 206 173 253 66
31 105 32 50 1 -41 -23 -55 -51 -36 -70 7 -7 13 -2 20 16 12 32 51 53 113 62
138 21 291 -82 349 -235 24 -63 24 -74 2 -62 -21 12 -63 -5 -63 -25 0 -11 8
-13 29 -8 70 15 80 -106 21 -233 -55 -118 -176 -220 -314 -267 -183 -61 -430
-27 -641 89 -81 44 -93 59 -75 86 9 13 12 13 21 -2 13 -23 29 -23 29 0 0 18
-18 42 -32 42 -4 0 -16 -9 -26 -21 -16 -16 -20 -17 -25 -5 -4 9 4 21 19 30 16
11 24 26 24 45 0 32 -11 44 -54 58 -38 12 -55 37 -40 61 17 26 45 27 64 1 11
-14 23 -20 34 -16 27 11 2 44 -42 57 -55 15 -70 13 -97 -15 -34 -33 -34 -87 0
-127 29 -34 31 -46 10 -54 -33 -13 -254 216 -356 371 -75 112 -127 220 -169
350 -29 90 -33 118 -41 278 -11 239 -32 280 -144 284 -27 1 -75 6 -105 12 -30
5 -81 10 -112 10 -56 1 -59 0 -104 -46 -25 -27 -50 -58 -55 -70 -4 -12 -27
-34 -50 -48 -32 -21 -40 -31 -35 -48 3 -11 1 -26 -4 -32 -8 -10 -16 -49 -23
-109 -2 -19 10 -30 56 -46 30 -10 69 -82 81 -147 6 -38 -4 -42 -42 -14 -15 10
-38 22 -52 26 -64 19 -183 94 -271 171 -20 18 -51 35 -68 39 -31 7 -56 35 -79
88 -12 27 -11 28 10 21 13 -5 38 -8 57 -9 30 0 37 5 63 50 15 28 31 58 34 68
4 9 15 17 25 17 27 0 31 17 20 75 -9 45 -7 53 14 85 21 30 25 49 27 126 3 109
-11 134 -100 187 -117 71 -209 84 -298 43z m1125 -535 c-2 -6 -12 4 -22 22
l-18 32 21 -21 c13 -12 21 -27 19 -33z m-2 -108 c-3 -10 -5 -4 -5 12 0 17 2
24 5 18 2 -7 2 -21 0 -30z m-8 -283 c7 -26 8 -7 6 80 -4 106 -3 110 6 46 53
-382 295 -757 648 -1006 50 -36 91 -67 91 -71 0 -3 -56 -14 -125 -23 -142 -19
-177 -14 -242 33 -67 49 -147 186 -228 395 -24 61 -54 147 -66 191 -12 44 -37
125 -55 181 -19 56 -34 110 -35 120 0 16 -2 15 -10 -5 -9 -23 -9 -23 -34 13
-14 20 -25 42 -25 49 0 8 -3 8 -9 -2 -6 -9 -11 -10 -15 -2 -7 11 -2 31 39 151
14 41 26 88 27 105 0 16 5 -26 9 -95 4 -69 12 -141 18 -160z m-86 93 c-30 -61
-29 -122 3 -184 23 -46 28 -51 35 -34 4 11 8 17 8 13 1 -3 4 -14 8 -24 4 -12
3 -15 -5 -10 -29 18 -8 -14 28 -43 29 -23 38 -36 31 -45 -5 -6 -10 -25 -9 -41
1 -55 -2 -66 -14 -59 -7 5 -8 3 -3 -6 5 -8 10 -63 12 -123 4 -113 19 -172 48
-183 8 -3 15 -13 15 -21 0 -8 4 -11 10 -8 14 9 115 -70 128 -100 21 -46 14
-65 -44 -120 -41 -39 -55 -59 -52 -76 2 -12 -3 -24 -10 -27 -7 -2 -12 0 -11 5
4 15 -13 43 -22 37 -5 -3 -6 2 -3 10 6 16 -8 21 -47 17 -20 -2 -33 25 -17 35
7 4 8 3 4 -4 -4 -7 -2 -12 3 -12 6 0 11 11 11 24 0 13 3 33 6 43 5 15 4 15 -4
3 -8 -11 -11 -6 -10 20 1 33 -16 333 -30 527 -8 101 -21 129 -83 171 -27 19
-33 29 -31 52 2 20 -5 41 -22 63 -14 19 -26 39 -26 44 0 15 27 24 34 12 2 -5
3 -4 1 3 -3 13 65 91 73 84 2 -2 -5 -21 -15 -43z m-92 -121 c2 -45 2 -46 8
-12 6 34 7 34 19 13 14 -25 15 -43 3 -61 -20 -32 -111 39 -111 86 0 10 61 31
73 25 4 -2 8 -25 8 -51z m173 -70 c3 -5 -1 -9 -9 -9 -8 0 -12 4 -9 9 3 4 7 8
9 8 2 0 6 -4 9 -8z m-654 -58 c22 -20 40 -41 40 -46 0 -10 -40 -47 -51 -48 -6
0 -39 106 -39 123 0 13 10 7 50 -29z m710 -128 c0 -3 -4 -8 -10 -11 -5 -3 -10
-1 -10 4 0 6 5 11 10 11 6 0 10 -2 10 -4z m0 -76 c0 -15 -6 -27 -13 -27 -7 0
-13 12 -12 27 0 15 6 27 12 27 7 0 13 -12 13 -27z m63 -102 c20 -57 37 -111
37 -120 0 -28 -16 -29 -18 -1 -3 35 -8 39 -27 19 -18 -18 -35 -13 -35 10 0 8
-4 14 -9 14 -5 0 -11 10 -15 23 -5 18 -8 20 -16 7 -8 -13 -10 -12 -10 3 0 22
43 147 50 147 3 0 22 -46 43 -102z m-898 -106 c24 -32 21 -59 -11 -91 l-24
-24 0 40 c0 21 -4 43 -10 49 -5 5 -7 27 -3 49 5 34 8 37 17 21 6 -10 20 -30
31 -44z m619 -55 c9 -53 16 -101 16 -106 0 -6 -23 -22 -52 -36 -49 -25 -53
-25 -65 -9 -16 22 -16 37 -2 89 11 40 78 170 84 163 2 -2 11 -47 19 -101z
m-675 -57 c-17 -11 -17 -12 -11 35 l5 40 10 -33 c8 -26 7 -36 -4 -42z m933 48
c2 -13 8 -23 15 -23 6 0 15 -3 19 -7 3 -4 -4 -5 -17 -3 -29 6 -53 30 -45 44
11 18 24 13 28 -11z m213 -244 l28 -36 -30 6 c-28 6 -77 -13 -147 -59 -47 -31
-37 4 19 65 70 76 72 102 14 165 -23 25 -36 45 -30 45 6 0 11 15 11 33 0 27 9
16 54 -76 30 -59 66 -124 81 -143z m-1065 191 c0 -29 -5 -31 -27 -9 -14 13
-14 17 -2 25 23 14 29 11 29 -16z m-286 -81 c24 -9 19 -21 -14 -33 -16 -5 -30
-16 -30 -23 0 -17 -42 -101 -55 -110 -5 -4 -14 -3 -19 2 -11 11 24 84 64 133
35 41 32 39 54 31z m392 -19 c23 -23 27 -24 48 -10 21 14 24 13 39 -3 14 -15
14 -21 3 -43 -13 -25 -12 -25 20 -24 18 0 31 -3 28 -6 -2 -4 0 -10 6 -14 18
-11 10 -22 -20 -28 -24 -5 -30 -12 -30 -31 0 -33 -29 -49 -54 -31 -16 12 -22
11 -48 -8 -25 -18 -30 -19 -38 -7 -10 16 -3 57 11 76 6 7 0 15 -16 22 -26 12
-46 48 -38 68 2 6 14 10 26 10 22 -1 24 5 12 37 -11 26 21 22 51 -8z m321 8
c2 -6 -4 -13 -13 -17 -14 -5 -15 -4 -5 8 8 10 9 16 1 19 -6 3 -5 4 2 3 6 -1
13 -7 15 -13z m-540 -8 c12 -9 26 -15 30 -14 26 4 43 -3 43 -19 0 -11 11 -22
28 -28 l27 -11 -30 -13 c-16 -8 -31 -15 -33 -15 -1 -1 4 -21 12 -43 14 -39 14
-42 -3 -42 -10 0 -26 9 -36 20 -13 15 -22 17 -36 10 -26 -14 -62 -13 -56 3 19
47 20 50 9 43 -14 -8 -62 3 -62 15 0 4 18 13 39 20 36 11 39 14 31 35 -9 24
-4 54 9 54 4 0 16 -7 28 -15z m557 -34 c-10 -10 -23 -16 -28 -13 -5 3 2 11 15
18 33 18 36 17 13 -5z m-144 -12 c0 -11 -4 -17 -10 -14 -5 3 -10 13 -10 21 0
8 5 14 10 14 6 0 10 -9 10 -21z m27 -43 c-4 -12 -57 -17 -57 -5 0 6 5 7 10 4
6 -3 10 -2 10 2 0 5 9 9 20 9 11 0 19 -4 17 -10z m-572 -86 c-6 -29 -5 -30 23
-24 41 8 48 -10 18 -49 -22 -29 -24 -35 -11 -48 7 -8 17 -26 20 -41 11 -43
-19 -36 -55 13 -26 36 -31 39 -36 23 -12 -33 -45 -74 -55 -69 -5 4 -9 19 -9
36 0 23 -4 29 -21 29 -19 0 -21 4 -16 35 3 19 2 48 -3 65 -12 41 8 49 55 21
23 -13 35 -16 35 -8 0 7 10 27 21 46 18 31 22 33 31 18 5 -10 7 -31 3 -47z
m945 40 c0 -5 8 -10 18 -10 14 0 15 -2 2 -10 -21 -13 -23 -13 -38 10 -10 17
-10 20 3 20 8 0 15 -4 15 -10z m-392 -50 c18 -11 39 -20 47 -20 24 0 17 -19
-9 -26 -21 -5 -22 -8 -12 -30 6 -13 16 -22 23 -20 7 3 10 -1 6 -10 -5 -13 -8
-12 -25 3 -17 16 -18 16 -12 0 7 -20 1 -21 -27 -7 -17 9 -19 7 -19 -16 0 -26
0 -27 -20 -9 -19 17 -20 17 -21 -1 -2 -31 -27 58 -28 98 -1 58 39 73 97 38z
m638 -17 c-10 -10 -19 5 -10 18 6 11 8 11 12 0 2 -7 1 -15 -2 -18z m-24 -31
c-3 -10 -1 -13 6 -8 17 10 15 0 -5 -19 -15 -16 -17 -15 -27 17 -10 27 -9 34 4
39 18 8 30 -8 22 -29z m-923 -30 c10 -24 17 -27 52 -27 53 0 80 -30 48 -53
-16 -11 -17 -17 -8 -28 6 -8 18 -14 26 -14 13 0 13 -3 3 -15 -15 -18 -71 -20
-89 -2 -10 10 -11 9 -6 -4 7 -19 122 -79 153 -79 30 0 28 -18 -3 -26 -20 -5
-24 -11 -19 -30 4 -17 1 -26 -10 -30 -9 -3 -16 -12 -16 -20 0 -19 -13 -17 -44
7 -20 16 -25 17 -20 4 4 -10 2 -15 -7 -13 -13 3 -38 75 -39 114 0 17 -5 20
-24 17 -34 -7 -54 29 -35 63 9 17 18 22 31 18 16 -5 17 -3 7 20 -12 25 -29 27
-29 3 0 -20 -57 -77 -78 -77 -30 0 -33 11 -12 40 17 24 18 29 5 40 -29 24 -11
70 27 70 10 0 18 7 18 15 0 8 5 26 12 40 10 23 13 24 29 9 9 -8 22 -28 28 -42z
m498 26 c-3 -8 -6 -5 -6 6 -1 11 2 17 5 13 3 -3 4 -12 1 -19z m290 -10 c-3 -7
-5 -2 -5 12 0 14 2 19 5 13 2 -7 2 -19 0 -25z m83 18 c0 -3 -4 -8 -10 -11 -5
-3 -10 -1 -10 4 0 6 5 11 10 11 6 0 10 -2 10 -4z m140 -6 c0 -5 -5 -10 -11
-10 -5 0 -7 5 -4 10 3 6 8 10 11 10 2 0 4 -4 4 -10z m-50 -50 c0 -5 -7 -10
-15 -10 -8 0 -15 5 -15 10 0 6 7 10 15 10 8 0 15 -4 15 -10z m-520 -34 c0 -3
-4 -8 -10 -11 -5 -3 -10 -1 -10 4 0 6 5 11 10 11 6 0 10 -2 10 -4z m-666 -111
c8 -8 19 -15 25 -15 6 0 11 -16 11 -36 0 -28 -9 -44 -46 -82 -37 -38 -45 -43
-41 -24 5 22 4 23 -36 17 -34 -6 -40 -5 -29 6 17 18 15 29 -4 29 -10 0 -14 6
-11 14 3 7 0 19 -6 25 -8 8 -6 14 7 24 17 12 17 14 0 28 -16 13 -15 14 17 20
61 11 97 9 113 -6z m146 -180 c0 -22 3 -24 19 -16 38 21 43 -27 7 -64 -19 -19
-21 -26 -10 -37 7 -7 16 -25 19 -40 8 -32 -8 -37 -41 -14 -16 13 -21 12 -36
-1 -23 -20 -52 -13 -56 15 -3 17 -10 22 -33 22 -16 0 -29 4 -29 10 0 16 48 42
62 34 7 -4 3 5 -10 20 -28 36 -14 61 30 52 19 -4 28 -1 28 7 0 17 20 37 37 37
7 0 13 -11 13 -25z m766 -100 c7 -19 14 -38 14 -43 0 -11 -44 -10 -51 1 -6 9
10 77 18 77 2 0 11 -16 19 -35z m14 -94 c5 -11 10 -32 10 -48 l-1 -28 -19 35
c-11 19 -19 41 -20 48 0 19 18 14 30 -7z m-825 -93 c2 -7 5 -36 8 -64 3 -46 2
-51 -22 -62 -17 -8 -27 -9 -29 -2 -2 5 -10 10 -18 10 -8 0 -14 9 -14 20 0 14
-7 20 -22 20 -21 0 -20 2 10 21 17 12 32 26 33 32 1 7 4 1 9 -13 7 -24 7 -23
15 13 7 37 22 49 30 25z m1105 -23 c10 -9 16 -23 13 -31 -3 -8 0 -14 7 -14 8
0 10 9 6 25 -8 33 2 32 46 -5 73 -60 98 -169 59 -255 -22 -48 -44 -69 -94 -90
-63 -26 -124 -12 -81 19 10 8 15 20 11 30 -9 22 -22 20 -34 -6 -9 -21 -13 -16
-51 52 -23 41 -42 81 -42 88 0 7 12 24 27 38 29 27 54 25 87 -7 17 -15 18 -22
8 -44 -15 -32 -57 -36 -49 -5 3 13 0 20 -9 20 -7 0 -17 -12 -20 -27 -13 -49
57 -82 102 -48 11 8 14 15 7 15 -7 0 -13 7 -13 15 0 18 16 20 24 3 3 -9 11 -6
24 10 11 12 25 22 32 22 6 0 8 5 4 11 -3 6 -17 8 -29 5 -18 -4 -32 3 -58 29
-32 32 -41 36 -84 33 -26 -1 -55 -8 -63 -15 -14 -11 -20 -4 -47 51 l-32 64 37
15 c62 26 65 27 130 23 41 -2 70 -10 82 -21z m1001 -175 c257 -79 431 -386
364 -643 -16 -61 -58 -151 -75 -162 -6 -4 -18 -4 -27 -1 -12 5 -13 9 -3 21 15
18 7 30 -15 22 -20 -8 -19 -44 2 -56 10 -5 15 -12 11 -16 -3 -4 -18 1 -32 10
-46 30 -70 10 -78 -65 -2 -19 -10 -26 -31 -28 -32 -4 -46 21 -29 49 16 25 15
39 -2 39 -27 0 -35 -60 -14 -105 23 -51 97 -45 130 11 13 21 27 34 37 32 13
-3 15 -15 13 -69 -7 -131 32 -250 106 -326 45 -47 46 -49 7 -31 -19 9 -30 8
-49 -1 -20 -11 -35 -7 -135 43 -169 85 -490 280 -491 298 0 4 9 9 19 13 63 20
104 85 104 165 l-1 55 72 35 c74 36 114 78 181 186 36 59 72 71 77 27 4 -37
32 -37 36 -1 4 32 -28 68 -60 68 -12 0 -32 -10 -45 -22 l-23 -21 0 22 c0 13
18 40 45 65 56 55 57 77 5 125 -40 37 -50 67 -28 89 17 17 47 15 54 -3 4 -8
10 -13 15 -10 14 9 -13 56 -42 71 -42 21 -65 17 -93 -17 -29 -34 -28 -41 5
-118 36 -82 20 -105 -31 -47 -69 78 -197 97 -279 43 -53 -35 -72 -67 -83 -135
-5 -31 -17 -65 -27 -75 -17 -18 -18 -17 -35 7 -10 16 -26 26 -40 26 -26 0 -54
-26 -41 -38 4 -4 10 -1 12 6 3 6 12 12 21 12 15 -1 15 -2 -1 -11 -13 -8 -17
-18 -13 -35 5 -17 2 -24 -8 -24 -24 0 -41 61 -41 150 0 73 4 93 28 142 96 195
321 293 528 228z m-963 -235 c-6 -28 5 -40 44 -50 44 -11 49 -73 8 -95 -16 -8
-23 -4 -44 23 -31 40 -33 51 -7 37 26 -13 31 -13 31 5 0 15 -46 32 -57 21 -6
-5 -53 55 -53 68 0 3 15 7 33 9 17 2 36 5 41 5 4 1 6 -9 4 -23z m884 -48 c132
-80 140 -251 18 -361 -41 -37 -69 -43 -37 -8 10 10 17 28 17 40 0 38 -28 24
-46 -24 -11 -30 -27 -50 -46 -60 -28 -15 -30 -14 -72 30 -51 52 -106 71 -178
63 -27 -4 -48 -4 -48 -1 0 14 48 91 67 106 12 10 25 27 28 38 6 18 12 15 54
-29 69 -71 145 -80 203 -26 50 46 52 123 5 139 -42 15 -55 -11 -22 -42 21 -19
23 -27 14 -43 -14 -27 -35 -34 -66 -20 -24 11 -25 14 -18 70 5 45 3 66 -10 91
-24 47 -15 60 47 60 37 0 64 -7 90 -23z m-215 -363 c38 -22 63 -50 63 -69 0
-10 -84 4 -119 18 -35 15 -101 60 -101 69 0 10 41 16 80 10 19 -2 54 -15 77
-28z m93 -157 c0 -103 -105 -189 -169 -139 -20 16 -22 22 -12 40 6 11 11 38
11 60 0 43 20 68 45 58 24 -9 30 -37 12 -51 -23 -17 -21 -35 3 -35 21 0 42 31
38 57 -2 11 6 19 22 23 16 4 26 14 28 30 6 36 22 4 22 -43z m-323 21 c17 -23
24 -50 10 -42 -26 15 -46 37 -41 45 7 13 20 11 31 -3z"/>
<path d="M1982 4395 c0 -16 2 -22 5 -12 2 9 2 23 0 30 -3 6 -5 -1 -5 -18z"/>
<path d="M2031 4244 c0 -11 3 -14 6 -6 3 7 2 16 -1 19 -3 4 -6 -2 -5 -13z"/>
<path d="M2123 3415 c0 -22 2 -30 4 -17 2 12 2 30 0 40 -3 9 -5 -1 -4 -23z"/>
<path d="M1386 3442 c-9 -26 -1 -41 13 -26 5 5 5 18 1 29 -7 19 -7 19 -14 -3z"/>
<path d="M1160 3434 c0 -14 4 -23 10 -19 6 3 10 15 10 26 0 10 -4 19 -10 19
-5 0 -10 -12 -10 -26z"/>
<path d="M933 3256 c4 -14 47 -21 47 -8 0 5 -11 12 -25 15 -16 3 -24 0 -22 -7z"/>
<path d="M1118 2844 c-4 -4 -3 -15 3 -26 11 -21 21 -18 25 7 1 8 -1 13 -6 10
-5 -3 -10 0 -12 6 -2 5 -7 7 -10 3z"/>
<path d="M4540 2340 c0 -16 5 -21 23 -18 12 2 22 10 22 18 0 8 -10 16 -22 18
-18 3 -23 -2 -23 -18z"/>
<path d="M2183 1519 c52 -153 87 -318 87 -410 0 -158 122 -320 279 -369 77
-24 130 -25 198 -1 54 18 125 61 120 73 -1 3 -30 27 -65 52 -59 44 -64 46 -85
31 -27 -19 -37 -19 -37 0 0 8 -9 19 -20 25 -16 9 -22 8 -26 -5 -4 -8 -1 -22 6
-30 19 -23 -14 -55 -56 -55 -33 0 -62 -28 -46 -45 4 -5 1 -5 -5 -1 -21 12 -15
41 12 66 30 28 32 51 6 74 -23 21 -41 88 -41 152 0 44 -4 51 -68 118 -72 76
-131 150 -214 268 -28 40 -48 66 -45 57z"/>
<path d="M4354 1395 c-4 -9 -2 -21 4 -27 15 -15 44 -1 40 19 -4 23 -36 29 -44
8z"/>
<path d="M2645 1251 c-46 -20 -92 -70 -101 -108 -5 -20 0 -32 28 -60 l36 -35
22 22 c18 18 29 21 59 16 53 -8 73 -38 70 -105 l-3 -55 63 -50 64 -50 23 28
c13 15 24 36 24 47 0 11 7 27 15 35 20 21 20 133 -1 182 -17 43 -67 97 -106
118 -37 19 -118 18 -147 -2 -19 -14 -22 -22 -16 -50 5 -29 3 -34 -13 -34 -23
0 -35 35 -21 62 5 10 26 27 47 37 49 26 13 28 -43 2z"/>
<path d="M1387 1213 c-19 -68 -19 -75 2 -63 33 17 44 46 25 64 -19 20 -22 20
-27 -1z"/>
<path d="M2533 1049 c7 -53 40 -89 83 -89 18 0 35 4 38 9 5 8 -106 121 -120
121 -3 0 -4 -18 -1 -41z"/>
<path d="M1356 1064 c-11 -27 -7 -37 9 -24 16 14 20 40 6 40 -5 0 -12 -7 -15
-16z"/>
<path d="M2636 1041 c-7 -10 42 -57 50 -48 4 3 4 18 0 32 -6 25 -38 35 -50 16z"/>
<path d="M2252 914 c-6 -41 -27 -115 -47 -163 -24 -60 -35 -105 -35 -138 0
-89 32 -150 72 -137 10 3 18 0 18 -6 0 -8 -10 -10 -25 -8 -32 7 -32 -2 3 -34
24 -24 38 -27 124 -34 110 -8 133 0 168 59 41 67 12 197 -45 204 -11 2 -43 6
-71 9 -48 6 -52 5 -77 -26 -32 -37 -34 -61 -9 -83 25 -22 59 -21 71 1 13 25
-6 47 -26 31 -16 -14 -17 3 -1 19 19 19 46 14 64 -13 21 -32 15 -61 -14 -58
-24 3 -28 -7 -11 -24 9 -9 6 -19 -11 -40 l-22 -28 4 28 c2 21 -3 30 -21 40
-36 18 -60 57 -63 102 -3 38 -1 41 42 63 25 12 47 27 48 32 5 15 42 12 42 -3
0 -7 19 -21 43 -32 54 -26 87 -75 87 -131 0 -43 1 -43 29 -38 25 5 32 2 46
-26 13 -25 21 -31 43 -28 51 6 70 98 23 113 -41 13 -67 -19 -36 -45 17 -14 11
-32 -10 -24 -38 15 -15 84 29 84 57 0 78 -91 30 -129 -35 -28 -90 -28 -104 -1
-13 23 -42 26 -60 5 -10 -12 -6 -20 20 -44 18 -16 48 -31 68 -35 59 -9 408 -7
512 4 52 6 199 19 325 31 334 29 479 63 537 126 12 15 18 24 13 21 -34 -20
-184 -39 -300 -39 -251 0 -493 73 -744 224 l-94 57 -34 -25 c-104 -80 -251
-89 -375 -23 -71 38 -158 129 -184 192 -11 25 -21 46 -24 46 -3 0 -11 -34 -18
-76z m268 -320 c0 -14 -7 -27 -15 -31 -24 -9 -32 7 -11 22 11 9 16 20 12 30
-3 9 -2 13 4 10 6 -3 10 -17 10 -31z"/>
<path d="M2083 556 c-21 -23 -53 -54 -72 -69 -18 -15 -32 -29 -30 -31 11 -10
168 -36 183 -30 19 7 19 21 -1 129 -10 53 -32 53 -80 1z"/>
<path d="M2494 399 c-19 -21 -19 -21 11 -17 19 2 31 10 33 21 5 24 -21 22 -44
-4z"/>
</g>
</svg>
